<?xml version="1.0" encoding="utf-8"?>
<!-- Generator: Adobe Illustrator 25.3.1, SVG Export Plug-In . SVG Version: 6.00 Build 0)  -->
<svg version="1.1" id="Layer_1" xmlns="http://www.w3.org/2000/svg" xmlns:xlink="http://www.w3.org/1999/xlink" x="0px" y="0px"
	 viewBox="0 0 338 468.5" style="enable-background:new 0 0 338 468.5;" xml:space="preserve">
<style type="text/css">
	.st0{fill-rule:evenodd;clip-rule:evenodd;}
	.st1{fill-rule:evenodd;clip-rule:evenodd;fill:#FFFFFF;}
</style>
<g>
	<g id="body_x2F_mono_x2F_Tee-Arms-Crossed">
		<path id="_xD83D__xDD8D_-Ink_2_" class="st0" d="M338,366.5c-0.2-5.4-1.2-10.9-2-16.3c-0.7-5.6-1.7-11.1-2.8-16.6
			c-3.2-16.5-7-33.2-13.6-48.7c-6.5-15.2-16.3-28.1-30.2-37.2c-15.8-10.2-34.9-15.9-53.5-18.4c-2.1-0.3-4.1-0.8-6.1-0.1
			c-0.6,0.2-1.2,0.6-1.9,0.6c-0.9,0-2-0.4-3-0.5c-2.6-0.3-5.3-0.5-7.9-0.7c-2.1-0.2-4.5-0.2-6.5-0.9c-4.3-1.7-6.6-16.6-7.3-19
			c-0.2-0.7-0.5-1.7-0.7-2.6c-0.1-0.3-0.2-0.6-0.4-0.7c-0.4-0.7-0.8-1.5-1.5-1.9c-0.2-0.2-0.6-0.3-0.8-0.3c-0.7-0.1-1.6,0.1-2,0.7
			c-1.1,1.3-0.8,3.4-0.6,5.3c0.2,0.7,0.3,1.5,0.4,2.1c0.4,2.7,1.4,22.8,16.1,23.8c14.6,0.9,13.2,2.2,13.2,3.4
			c-1.8,3.2-4.4,7.3-6.7,10c-3,3.5-6.3,6.9-9.9,10c-11.7,9.9-27.1,15.6-42.5,15.4c-8-0.1-15.6-2.1-21-8.4c-5-6-7.8-16.4-10-23.8
			c4.7-5.8,6.9-13.5,5.8-19.6c-0.1-0.6-0.2-1-0.4-1.5c-0.2-0.5-0.4-0.9-0.6-1.3c-0.7-1.2-1.7-2-3.2-0.9c-0.1,0.1-0.2,0.2-0.4,0.3
			c-0.5,0.6-0.7,1.4-1,2.4c-0.4,1.9-0.5,4.1-0.7,5.2c-0.9,3.7-3,5.8-5.6,8.8c-1.9-0.2-3.5,0.6-4.8,2c-11.8,2.9-23.1,6.6-32.6,14.4
			c-7.5,6.2-13.5,14.1-18.9,22.1c-6.4,9.4-12.6,18.9-18.7,28.4c-7,10.7-14,21.3-21.1,32c-1.7,2.6-3.4,5.2-5.2,7.8
			c-0.8,1.3-1.7,2.6-2.6,3.9c-0.7,1.1-1.9,2.4-2.3,3.8c-0.4,1.2,0,2.6,0.2,3.5c0.2,1.2,0.5,2.3,1,3.5c0.7,1.5,1.8,2.9,3,4
			c-3.7,8.3-5.2,17.4-5.6,26.5c-0.3,7.6,0,15.5,1.5,22.9c1.1,5.9,3.4,11.5,7.5,15.8c3.4,3.6,7.6,6.2,12.3,7.8
			c8.2,2.9,17.2,2.9,25.8,2c-0.2,0.8-0.4,1.7-0.6,2.4c-0.6,2.5-1.1,24.9-2.2,30c-0.5,2.1-0.7,5.1-2,6.9c-1.2,1.7-2,3.6-1.5,5.8
			c0.4,1.6,1.3,3.6,2.5,4.8c1.6,1.5-0.4,0.6,5.8,1.5c47,6.7,163.7,10.7,225.7-2.6c2.5,3,7.9,3.1,10.1-0.6c1.4-2.4,1.2-6.1,1.4-8.8
			c0.2-3.4,1.3-32,1.7-39.1c0.4-7.1,0.7-14.3,0.7-21.3c0-3.5-0.2-7.1-0.6-10.6c-0.2-1.4-0.2-3.6-0.9-5c2-5.8,4.5-11.3,7.5-16.7
			c4.8-1.2,9.5-3,13.9-5.3c2-1,4.1-2,5-4.1C337.5,370.7,338.1,368.8,338,366.5z M92.2,349.7c4.6-3.1,10.2,0.7,14.3,3.1
			c1.1,0.7,2.2,1.3,3.4,2c-8.4,1.1-16.8,2.1-25.2,3.1C86.7,354.6,89.2,351.6,92.2,349.7z M102.8,420c-8.8,2.1-17.8,3.7-26.6,4.9
			c-6.3,0.8-12.9,1.4-19.3,0.9c-5.5-0.5-11.5-1.9-15.7-5.7c-5.6-5-6.7-12.9-7.2-20c-0.6-8.6-0.5-17.2,1.5-25.6
			c0.9-4,2.3-7.7,4.2-11.5c1-2.1,2.9-4.8,3.4-7.3c7.5-0.4,14.6,1,21.4,3.6c-0.8,0-1.7,0.1-2.5,0.2c-2.1,0.2-4.2,0.3-6.3,0.6
			c-1.7,0.2-3.7,0.2-5.2,1.1c-2.3,1.5-2.3,4.8-0.4,6.7c2.3,2.3,7.3,1.2,10.2,1c15-1.3,30-2.7,45-4.8c15.3-2,30.4-4.7,45.6-7.4
			c15.2-2.7,30.5-5.2,45.9-5.8c7.6-0.3,15.3,0,22.8,1.1c7.1,1,13.6,3.2,20.4,5.1c-1.8,4.3-3.4,8.6-5.4,12.8
			c-0.6,1.3-1.2,3.7-2.7,4.3c-1.7,0.7-4.1,0-5.8-0.1c-9.7-0.6-19.6,0.4-29.1,2.7c-8.5,2-16.5,5.4-24,9.7
			c-7.5,4.2-14.4,9.1-21.7,13.5C136.1,409.2,119.8,415.8,102.8,420z M309.9,369.5c-0.5,1.7-1,3.4-1.6,5.1c-1.1,3.6-2.5,7.2-3.9,10.7
			c-2.9,6.9-6.2,13.7-10.2,20c-6.6,10.7-14.7,21.7-25.1,29.2c-4.9,3.6-10.6,5.4-16.8,5.1c-6.9-0.3-13.7-2.3-20.3-4
			c-14-3.6-27.8-7.9-41.3-12.8c-6.7-2.4-13.4-5-20-7.7c-3.4-1.3-6.7-2.8-10.1-4.2c-1.6-0.7-3.2-1.5-4.8-2.2
			c6-3.6,11.8-7.5,17.8-11.1c6.5-3.9,13.2-7.5,20.4-9.7c7.8-2.4,15.8-3.7,23.9-4c4-0.2,8,0,11.9-0.3c3.3-0.2,6.4-1.2,8.6-3.8
			c2.1-2.7,2.9-6.4,3.8-9.6c1-3.4,2-6.9,3.1-10.3c0.7-0.1,1.3-0.3,2-0.4c1.5-0.3,3.1-0.5,4.7-0.7c2.9-0.3,5.8-0.5,8.8-0.5
			c5.9-0.1,11.7,0.4,17.5,1.2c10.9,1.6,21.4,4.5,32,7.6C310.2,368,310.1,368.8,309.9,369.5z"/>
		<path class="st1" d="M109.8,354.7c-8.4,1.1-16.8,2.1-25.2,3.1c2-3.2,4.6-6.1,7.5-8.1c4.6-3.1,10.2,0.7,14.3,3.1
			C107.5,353.3,108.7,354.1,109.8,354.7z"/>
		<path class="st1" d="M310.4,367.3c-0.2,0.7-0.4,1.5-0.7,2.2c-0.5,1.7-1,3.4-1.6,5.1c-1.1,3.6-2.5,7.2-3.9,10.7
			c-2.9,6.9-6.2,13.7-10.2,20c-6.6,10.7-14.7,21.7-25.1,29.2c-4.9,3.6-10.6,5.4-16.8,5.1c-6.9-0.3-13.7-2.3-20.3-4
			c-14-3.6-27.8-7.9-41.3-12.8c-6.7-2.4-13.4-5-20-7.7c-3.4-1.3-6.7-2.8-10.1-4.2c-1.6-0.7-3.2-1.5-4.8-2.2
			c6-3.6,11.8-7.5,17.8-11.1c6.5-3.9,13.2-7.5,20.4-9.7c7.8-2.4,15.8-3.7,23.9-4c4-0.2,8,0,11.9-0.3c3.3-0.2,6.4-1.2,8.6-3.8
			c2.1-2.7,2.9-6.4,3.8-9.6c1-3.4,2-6.9,3.1-10.3c0.7-0.1,1.3-0.3,2-0.4c1.5-0.3,3.1-0.5,4.7-0.7c2.9-0.3,5.8-0.5,8.8-0.5
			c5.9-0.1,11.7,0.4,17.5,1.2C289.4,361.2,300,364.1,310.4,367.3z"/>
		<path class="st1" d="M239.7,357.4c-1.8,4.3-3.4,8.6-5.4,12.8c-0.6,1.3-1.2,3.7-2.7,4.3c-1.7,0.7-4.1,0-5.8-0.1
			c-9.7-0.6-19.6,0.4-29.1,2.7c-8.5,2-16.5,5.4-24,9.7c-7.5,4.2-14.4,9.1-21.7,13.5c-15,8.9-31.3,15.6-48.3,19.7
			c-8.8,2.1-17.8,3.7-26.6,4.9c-6.3,0.8-12.9,1.4-19.3,0.9c-5.5-0.5-11.5-1.9-15.7-5.7c-5.6-5-6.7-12.9-7.2-20
			c-0.6-8.6-0.5-17.2,1.5-25.6c0.9-4,2.3-7.7,4.2-11.5c1-2.1,2.9-4.8,3.4-7.3c7.5-0.4,14.6,1,21.4,3.6c-0.8,0-1.7,0.1-2.5,0.2
			c-2.1,0.2-4.2,0.3-6.3,0.6c-1.7,0.2-3.7,0.2-5.2,1.1c-2.3,1.5-2.3,4.8-0.4,6.7c2.3,2.3,7.3,1.2,10.2,1c15-1.3,30-2.7,45-4.8
			c15.3-2,30.4-4.7,45.6-7.4c15.2-2.7,30.5-5.2,45.9-5.8c7.6-0.3,15.3,0,22.8,1.1C226.4,353.3,233,355.4,239.7,357.4z"/>
	</g>
	<g>
		<g id="head_x2F_mono_x2F_Flat-Top_1_">
			<path class="st1" d="M243.5,157.2c0,8.8-5.5,13.9-16.2,15.3c-6.3,13.4-11.3,22.1-14.7,25.8c-1.6,1.7-4.8,4.5-9.3,7.5
				c-0.3,0.2-0.6,0.4-0.8,0.6c-1.6,1-3.4,2-5.2,3.1c-6.3,3.4-14.2,6.8-23.3,8.8c-6,1.4-12.4,2.2-19.2,2.2c-4.6,0-8.9-0.4-12.9-1
				c-1.2-0.2-2.4-0.4-3.5-0.7c-20.5-4.5-33.3-17.4-36-34.1c-1-6.1-0.4-16.1,1.1-27.7c0.3-2,0.6-4.2,0.8-6.3c1.1-7.6,2.5-15.7,4-23.7
				c0.4-1.8,0.7-3.6,1-5.3c3.2-16.2,6.3-30.9,7.7-38.4c0.1-0.4,0.2-0.7,0.2-1.1c0.2-1.1,0.6-2.2,1-3.4c5.9-13,32-25,52.5-25
				c22.3,0,47.2,6.3,56.7,19.8c6.3,9,8.3,30.8,5.8,65.5c2.2,1,4,2.2,5.5,3.8c1.1,1.1,2.1,2.5,2.9,4
				C242.9,149.8,243.6,153.2,243.5,157.2z"/>
			<path id="_xD83D__xDD8D_-Ink_5_" class="st0" d="M235.3,153.8c-5-2.4-10.5-0.2-13.2,4.6c-2.3,4.1,4.7,6.9,5.8,2.6v-0.1
				c0.7-3.3,3.9-6,7.2-6.4C235.5,154.3,235.7,154,235.3,153.8z M244.8,152.9c-0.4-2.8-1.2-5.5-2.7-7.8c-0.1-0.2-0.2-0.4-0.4-0.5
				c-0.8-1.2-2-2.3-3.2-3.2c2.7-6,3.3-12.7,3.1-19.3c-0.2-8.1-1.7-16.2-2.7-24.2l-3.1-22.7l-0.1-0.9c-0.7-5.3-1.7-10.7-3.6-15.7
				c-2-4.9-4.9-9.4-9.5-12.4c-5.1-3.4-11.5-4.2-17.5-4.2h-0.7c-7.6,0.1-46.4,1-59.4,1.3l-3.1,0.1c-4.1,0.1-12.3,0.2-16.6,0.2H125
				c-2.1,0-4.2,0.1-6.2,0.1h-0.3c-1.5,0.1-2.9,0.3-4.1,1.4c-0.7,0.6-0.8,1.4-0.7,2.2v0.1l-3,0.4c-2.1,0.2-3.2,2-2.4,4v0.1
				c1.5,3.2,2.6,12.4,3.4,15.7c0.4,1.8,0.7,3.6,0.9,5.4c0.2,1.4,0.2,2.9,0.9,4.2c1,1.6,3.1,2.2,4.7,1.7c1.1-0.4,2-1.3,2-2.9
				c0-0.1,0-0.2,0-0.4c12.1-0.6,28.6-0.5,40.7,0.3c11.3,0.7,22.5,2.2,33.5,4.6c2.8,0.6,5.6,1.2,8.4,2c2.3,0.6,5,0.9,7.1,2.1
				c2.3,1.4,2.2,3.8,2,6.2c-0.3,2.5-0.7,1.2-1.3,3.4v0.2c-0.7,2.5-1.4,4.9-2.5,7.3c-0.6,1.3-1.6,2.6-1.2,4.1
				c0.2,0.8,0.9,1.8,1.5,2.4c2.9,2.7,7.6,0.9,9.6,4.8c2,3.9,2.1,9.2,2.2,13.5v0.3c0.1,3,0.1,6-0.1,8.9c-0.1,1.8-0.5,3.6-0.5,5.3
				c0,0.9,0.2,1.8,0.5,2.7c0.2,0.6,0.5,0.9,0.9,1.2c0.7,0.5,1.6,0.5,2.3,0c0.3-0.2,0.6-0.4,0.7-0.7c0.1-0.2,0.2-0.3,0.3-0.5
				c0,0.1-0.1,0.2-0.1,0.3c-0.1,0.2,0.2,0.4,0.4,0.2c2.7-3,6.7-2.3,9.8-0.3c1.2,0.8,2.1,2,2.9,3.3c1.1,2,1.6,4.3,1.7,6.5
				c0.2,4-0.2,8.7-1.9,12.3c-0.7,1.5-1.7,3-3.4,3.6c-0.7,0.3-1.5,0.2-2.2,0.3s-1.8,0.5-2.6,0.4c-1-0.1-2,1.1-1.7,2.1v0.1
				c0,0.1,0,0.1,0,0.1s-0.1,0.1-0.1,0.2c-3,6.1-7.1,11.6-11.6,16.6c-2.3,2.5-4.8,4.8-7.5,7c-1.3,1-2.7,2.1-4.1,3
				c-0.5,0.3-0.9,0.5-1.5,0.7c-0.3,0.1-0.6,0.1-0.7,0.2l-0.3,0.1c0,0,0,0-0.1,0c-0.7,0.1-1.3,0.6-1.6,1.3c-0.2,0.7-0.2,1.4,0,2
				c0.4,1,1.1,1.8,2.3,2.1c0,0,0.1,0,0.2,0c0.4,0.1,0.7,0.2,1,0.2c1.7,0.1,3.4-0.7,4.8-1.8l0.1-0.1c3.4-2.4,6.5-5.2,9.2-8.4
				c5.3-6.3,8.8-13.7,10.3-21.8c0.4,0.8,0.9,1.6,1.9,2c1.4,0.7,3.1,0.7,4.6,0.6c3.1-0.6,5.8-2.4,7.5-4.9c1.9-2.6,2.5-5.9,2.9-8.9
				C244.9,159.2,245.1,156.1,244.8,152.9z M173.9,215.1c-1.6-0.7-2.7-0.9-4.5-0.7c-1.7,0.2-3.3,0.7-4.9,0.9
				c-3.1,0.6-6.3,0.9-9.5,0.9c-6.2,0.2-12.5-0.7-18.4-2.5c-10.2-3.3-20.7-9.3-26.6-18.5c-6.9-10.5-4.4-23.2-2.5-34.8
				c0-0.3,0.1-0.6,0.2-0.9l0.1-0.4c0.2-1,0.4-2.1,0.5-3.2c1.5-10,3.1-19.8,4.6-29.7c0.2-1.2,0.4-2.4,0.6-3.6l0.2-1.1l0.6-4.1
				c2-13.8,4-23.6,4.6-37.4c0-0.3-0.4-0.4-0.6-0.1c-0.4,1.2-0.7,2.4-1,3.5c-4,13.5-6.7,24.8-9.4,38.8c-0.2,0.7-0.3,1.5-0.4,2.2
				l-0.7,3.5l-0.2,1.2c-1.1,6.1-2.3,12.2-3.4,18.4c-0.5,2.3-0.8,4.8-1.3,7.1c-0.7,4.4-1.5,8.7-2.2,13l-0.1,0.7
				c-1,6.7-1.7,13.4-0.4,20c1.2,6.2,4.6,11.9,8.9,16.5c7.8,8.2,18.6,13.5,29.6,16.2c0.7,0.2,1.6,0.4,2.4,0.6c1,0.2,2,0.4,3.1,0.6
				c5,0.8,10.2,1.1,15.2,0.7c3.1-0.2,6.1-0.7,9-1.3l0.4-0.1c2.7-0.6,5.1-1.3,6.7-3.4c0.2-0.3,0.4-0.6,0.6-0.8
				C174.9,216.7,174.7,215.4,173.9,215.1z"/>
			<path class="st1" d="M227,238.7c-1.8,3.2-4.4,7.3-6.7,10c-3,3.5-6.3,6.9-9.9,10c-11.7,9.9-27.1,15.6-42.5,15.4
				c-8-0.1-15.6-2.1-21-8.4c-5-6-7.8-16.4-10-23.8c4.7-5.8,6.9-13.5,5.8-19.6c5,0.8,10.2,1.1,15.2,0.7c3.1-0.2,6.1-0.7,9-1.3
				l0.4-0.1c2.7-0.6,5.1-1.3,6.7-3.4c9.1-2.1,17-5.4,23.3-8.8c0.2,0.7,0.3,1.5,0.4,2.1c0.4,2.7,1.4,22.8,16.1,23.8
				C228.4,236.2,227,237.5,227,238.7z"/>
		</g>
	</g>
	<g id="face_x2F_Suspicious">
		<path id="_xD83D__xDD8D_-Ink_1_" class="st0" d="M141.5,195.7c-3-0.4-6.1-2.1-9-0.7c-1.3,0.7-2,2.9-1,4c1.4,1.9,2.8,2.1,5,2.3
			c1.7,0.2,3.4,0.2,5,0h0.4c3-0.4,6.1-1.2,8.4-3.3c0.5-0.4,0.2-1.3-0.4-1.4C147.1,196.1,144.3,196.1,141.5,195.7z M135.7,153.7
			c-3,1.8-7.5,6.1-4.3,10.5c3.8,4,9.1-0.6,11.8-2.6c2.5-1.6,5.3,2.5,3,4.4c-19.3,14.3-27.1-11.7-12-14.3
			C135.8,151.4,136.4,153.1,135.7,153.7z M120.4,133.5c-0.7,0-1.3,0.2-2,0.7c-0.6,0.5-1.1,1-1.6,1.9c-0.8,1.5-1.4,3.5-1.4,5.8
			c0,2.2,0.6,4.4,1.4,5.8c0.5,0.7,1,1.4,1.6,1.9c0.6,0.5,1.3,0.7,2,0.7s1.3-0.2,2-0.7c0.6-0.5,1.1-1,1.6-1.9
			c0.8-1.5,1.4-3.5,1.4-5.8s-0.6-4.4-1.4-5.8c-0.5-0.7-1-1.4-1.6-1.9C121.8,133.8,121.1,133.5,120.4,133.5z M152.8,135.8h-0.3
			c-1.5-0.3-2.3-0.2-3.6,0.8c-1,0.7-0.7,2.3,0,3.2c1.2,1.4,2.5,1.2,4.2,1.2h0.1c1.4,0.1,2.9,0.1,4.3,0.1c0.4,0,0.7,0,1.1,0
			c0,3.6,2,6.3,4.8,8.5c1.8,1.3,4-0.2,4.7-1.9c0.6-1.4,0.7-3.1,0.4-4.7c-0.1-0.6-0.3-1.1-0.7-1.7l-0.1-0.2V141c0,0,0-0.1,0-0.2
			c2.5-0.2,5-0.4,7.6-0.7l0.8-0.1c2.1-0.3,5.3-0.4,7.1-1.8V138c-0.9-0.6-2-0.5-3-0.6H180c-1.1-0.1-2.3-0.1-3.4-0.2h-1.1
			c-3-0.1-6-0.2-8.9-0.4c-0.6,0-1-0.1-1.6-0.1c-0.6-0.2-1.1-0.4-1.7-0.4c-0.5,0-0.9,0-1.3,0.2c-1.1-0.1-2.1-0.2-3.3-0.3l-1.1-0.1
			C155.9,136.2,154.3,136.1,152.8,135.8z M133.9,108.7c-3.3-1.6-7.3-1.7-10.7-0.3l-0.2,0.1c-3.4,1.4-7.5,4.7-6.6,8.8
			c0.8,3.7,6.7,3.1,7-0.4c1.9-2.6,6.1-3.2,8.8-1.5c1.6,1,2.7,2.7,3.4,4.4c0.7,1.5,0.7,3.3,1.8,4.6c0,0,0.1,0,0.2,0
			c3-0.7,3.1-5.4,2.5-7.6C139.3,113.4,137,110.3,133.9,108.7z"/>
	</g>
	<g id="accessories_x2F_Glasses-5">
		<path id="_xD83D__xDD8D_-Ink_3_" class="st0" d="M102.2,146.5c1.1,3.1,2.8,6.1,4.8,8.8c8.4,7.1,16.6,3.2,20.7-6.4
			c1.6-6.8-2.6-14.2-7.1-19.1c-6.4-6.4-16.8-3.1-19.7,4.6c-0.2,0.9-0.3,2-0.4,3c0.1,3.2,0.5,6,1.6,8.9L102.2,146.5L102.2,146.5z
			 M182.9,140.4c-11.1-13.1-31.7-13.9-31.2,6.3C154.1,172.3,194.1,166.1,182.9,140.4z M98.8,129.4c0.4-0.7,0.8-1.3,1.3-2
			c0.2-0.1,0.3-1,0.9-1.1c8.6-9.4,23.5-4.1,28.9,5.3c0.9,1.2,1.8,2.6,2.4,4c5.3-0.9,11.6-0.7,16.5,1.2c4.9-12.9,19.8-14,29.6-8.5
			c6.1,3,10.1,9.3,16,12.8c14,1,28.9-2.1,42.6,1.4c10.8,2.2,1.8,7.7,0,4.1c-12.9-3.8-28.2-0.6-41.6-1.5c-1.4,2.3-4.1,4.3-6.7,4.2
			c-2.9,25.5-40.1,21.2-41.4-1.4c-1.5-2.3-3.3-4.5-5.9-6c-0.9-0.2-2-0.5-2.8-0.9c-1.5-0.2-3.8,0.4-5.1,1.7
			c-4.8,28.3-31.9,25.1-36.7,0.2c-0.1-0.1-0.4-0.5-0.6-1c-1.7-2.2-5.8-3-5.1-6.7C91.5,131.6,96.3,131.6,98.8,129.4z"/>
	</g>
</g>
</svg>
